{"title":"Jane Eyre 2011 DVDrip English Klam","uid":6597015,"size":1508224392,"categoryP":"video","categoryS":"movies","magnet":"?xt=urn:btih:c30b6279b44a592764416b1a2fc4cce818bc92f9&amp;dn=Jane+Eyre+2011+DVDrip+English+Klam&amp;tr=udp%3A%2F%2Ftracker.openbittorrent.com%3A80&amp;tr=udp%3A%2F%2Fopen.demonii.com%3A1337&amp;tr=udp%3A%2F%2Ftracker.coppersurfer.tk%3A6969&amp;tr=udp%3A%2F%2Fexodus.desync.com%3A6969","seeders":1,"leechers":0,"uploader":"Klambake","files":-1,"time":1313060389,"description":"With: Mia Wasikowska, Michael Fassbender en Judi Dench\n\nJane Eyre (Mia Wasikowska) wordt aangenomen op het mysterieuze 'Thornfield' landgoed, waar ze als gouvernante voor de rijke Edward Rochester (Michael Fassbender) gaat werken. Het geÃƒÂ¯soleerde en harde bestaan daar heeft ernstige invloed op het leven van Jane en ondanks de kilheid van Edward tegenover haar, wordt ze toch verliefd op hem. Jane lijkt eindelijk gelukkig, totdat een vreselijk geheim van Edward boven water lijkt te komen...\n\nA mousy governess who softens the heart of her employer soon discovers that he's hiding a terrible secret.\n\n------------------ Dutch Friends ------------------\nYou can find my Friends at: http://www.Film-Test.nl \n------ They got my dutchs subs ---- and more ------\n\nGeneral:\n\nComplete name                    : Jane Eyre\\Jane Eyre.avi\nFormat                           : AVI\nFormat/Info                      : Audio Video Interleave\nFile size                        : 1.40 GiB\nDuration                         : 2h 0mn\nOverall bit rate                 : 1 673 Kbps\n\nVideo:\n\nFormat                           : MPEG-4 Visual\nFormat profile                   : Simple@L3\nFormat settings, BVOP            : No\nFormat settings, QPel            : No\nFormat settings, GMC             : No warppoints\nFormat settings, Matrix          : Default (H.263)\nCodec ID                         : XVID\nCodec ID/Hint                    : XviD\nDuration                         : 2h 0mn\nBit rate                         : 1 215 Kbps\nWidth                            : 652 pixels\nHeight                           : 352 pixels\nDisplay aspect ratio             : 1.852\nFrame rate                       : 23.976 fps\nColor space                      : YUV\nChroma subsampling               : 4:2:0\nBit depth                        : 8 bits\nScan type                        : Progressive\nBits/(Pixel*Frame)               : 0.221\nStream size                      : 1.02 GiB (73%)\nWriting library                  : XviD 1.1.2 (UTC 2006-11-01)\n\nAudio:\n\nFormat                           : AC-3\nFormat/Info                      : Audio Coding 3\nMode extension                   : CM (complete main)\nCodec ID                         : 2000\nDuration                         : 2h 0mn\nBit rate mode                    : Constant\nBit rate                         : 448 Kbps\nChannel(s)                       : 6 channels\nChannel positions                : Front: L C R, Side: L R, LFE\nSampling rate                    : 48.0 KHz\nBit depth                        : 16 bits\nStream size                      : 385 MiB (27%)\nAlignment                        : Aligned on interleaves\nInterleave, duration             : 32 ms (0.77 video frame)\nInterleave, preload duration     : 64 ms\n\n","torrent":{"xt":"urn:btih:c30b6279b44a592764416b1a2fc4cce818bc92f9","amp;dn":"Jane+Eyre+2011+DVDrip+English+Klam","amp;tr":["udp%3A%2F%2Ftracker.openbittorrent.com%3A80","udp%3A%2F%2Fopen.demonii.com%3A1337","udp%3A%2F%2Ftracker.coppersurfer.tk%3A6969","udp%3A%2F%2Fexodus.desync.com%3A6969"],"infoHash":"c30b6279b44a592764416b1a2fc4cce818bc92f9","infoHashBuffer":{"type":"Buffer","data":[195,11,98,121,180,74,89,39,100,65,107,26,47,196,204,232,24,188,146,249]},"announce":[],"urlList":[]}}